<?xml version="1.0" encoding="UTF-8"?><svg xmlns="http://www.w3.org/2000/svg" xmlns:xlink="http://www.w3.org/1999/xlink" contentScriptType="text/ecmascript" width="75" zoomAndPan="magnify" contentStyleType="text/css" viewBox="0 0 75 74.999997" height="74.999997" preserveAspectRatio="xMidYMid meet" version="1.0"><defs><clipPath id="clip-0"><path d="M 29.105469 26.921875 L 46.355469 26.921875 L 46.355469 46.421875 L 29.105469 46.421875 Z M 29.105469 26.921875 " clip-rule="nonzero"/></clipPath></defs><g clip-path="url(#clip-0)"><path fill="rgb(94.119263%, 93.728638%, 92.549133%)" d="M 46.316406 30.484375 C 46.289062 30.46875 46.261719 30.46875 46.234375 30.484375 L 46.195312 30.507812 L 39.441406 26.921875 L 39.441406 34.621094 L 36.097656 32.589844 L 36.097656 28.394531 C 36.101562 28.363281 36.085938 28.339844 36.058594 28.324219 C 36.03125 28.3125 36.003906 28.3125 35.976562 28.328125 L 29.144531 32.484375 C 29.121094 32.5 29.105469 32.523438 29.109375 32.550781 L 29.109375 44.285156 C 29.109375 44.316406 29.121094 44.339844 29.148438 44.355469 C 29.160156 44.363281 29.175781 44.363281 29.1875 44.363281 C 29.203125 44.363281 29.21875 44.359375 29.230469 44.351562 L 32.625 42.285156 L 39.398438 46.410156 L 39.40625 46.410156 C 39.417969 46.414062 39.429688 46.417969 39.441406 46.417969 C 39.453125 46.417969 39.464844 46.414062 39.476562 46.410156 L 39.484375 46.410156 L 46.320312 42.25 C 46.34375 42.234375 46.355469 42.210938 46.355469 42.179688 L 46.355469 30.554688 C 46.355469 30.523438 46.34375 30.5 46.316406 30.484375 Z M 39.359375 34.757812 L 39.359375 46.203125 L 37.15625 44.859375 L 37.15625 38.917969 L 36.101562 38.289062 L 36.101562 32.777344 Z M 34.890625 40.726562 L 32.6875 42.066406 L 32.6875 30.699219 L 35.941406 32.675781 L 35.941406 38.183594 L 34.890625 37.542969 Z M 35.941406 32.492188 L 32.691406 30.511719 L 35.941406 28.53125 Z M 29.269531 32.597656 L 32.523438 30.613281 L 32.523438 42.164062 L 29.269531 44.144531 Z M 34.890625 40.910156 L 34.890625 43.484375 L 32.773438 42.195312 Z M 46.195312 42.140625 L 39.519531 46.203125 L 39.519531 34.757812 L 46.195312 30.695312 Z M 44.363281 36.539062 L 43.070312 37.339844 L 43.070312 35.367188 L 44.363281 34.570312 Z M 44.363281 38.992188 L 43.070312 39.789062 L 43.070312 37.761719 L 44.363281 36.960938 Z M 42.707031 37.5625 L 41.355469 38.394531 L 41.355469 36.425781 L 42.707031 35.589844 Z M 42.707031 40.011719 L 41.355469 40.847656 L 41.355469 38.8125 L 42.707031 37.980469 Z M 42.707031 40.011719 " fill-opacity="1" fill-rule="nonzero"/></g></svg>